<svg width="299" height="86" viewBox="0 0 299 86" fill="none" xmlns="http://www.w3.org/2000/svg">
<path d="M33.8028 41.564C35.1092 40.5885 36.3612 39.3964 37.4498 37.9874C38.5929 36.6327 39.6271 35.1153 40.5525 33.5438C41.5323 31.9723 42.3488 30.3466 43.1108 28.7751C43.8729 27.1493 44.5261 25.5778 45.1249 24.1147C45.8325 22.489 46.4313 20.7549 46.8123 18.9666C47.1933 17.1783 47.3566 15.3901 47.1933 13.656C47.0844 11.7593 46.3768 10.5671 45.1793 10.0794C43.9818 9.64588 42.5121 9.5375 40.7702 9.86264C38.9739 10.1878 37.2865 10.7839 35.6535 11.7051C34.0205 12.5722 32.4964 13.656 31.0267 14.9023C29.557 16.1487 28.1962 17.5035 26.8898 18.9124C25.5834 20.3214 24.4404 21.6761 23.3517 23.0309C20.9566 26.0114 18.8338 29.046 16.8742 32.2432C14.9146 35.4405 13.2816 38.8003 11.9752 42.3768C11.4309 43.569 10.941 45.0322 10.4511 46.8204C9.9612 48.6087 9.68903 50.397 9.6346 52.1311C9.58017 53.9194 9.85233 55.4909 10.4511 56.954C11.1043 58.4172 12.3018 59.3926 14.0437 59.9345C15.84 60.4764 17.6362 60.639 19.5414 60.5306C21.4465 60.4222 23.2973 60.0971 25.2568 59.6093C27.162 59.1216 29.0672 58.5255 30.9179 57.7669C32.7686 57.0624 34.5104 56.3579 36.089 55.7076C37.8309 55.0032 39.5183 54.1903 41.2057 53.3775C42.8931 52.5646 44.5805 51.6976 46.3224 50.8847L51.4935 48.3919C51.8201 48.1752 52.2556 47.9584 52.7455 47.6333C53.2354 47.3623 53.7797 47.0372 54.324 46.712C54.8684 46.3869 55.4127 46.116 55.957 45.8992C56.5013 45.6824 56.9368 45.6282 57.3178 45.6282C57.9166 45.6824 58.2432 46.0618 58.2976 46.6579C58.3521 47.3081 58.1343 47.6875 57.59 47.9042C57.0457 48.4461 56.3925 48.8255 55.5215 49.0422C54.6506 49.259 53.8886 49.5299 53.2354 49.8551C51.3846 50.7763 49.5339 51.6976 47.7376 52.673C45.9414 53.6484 44.0362 54.5696 42.1311 55.4909C39.0828 57.0082 35.9801 58.5255 32.8775 60.0429C29.7203 61.5602 26.4544 62.6982 23.0251 63.4027C21.501 63.7278 19.868 63.8904 18.1806 63.8904C16.4387 63.8904 14.8602 63.6736 13.3905 63.1859C11.9208 62.6982 10.56 61.9937 9.41687 60.9099C8.27378 59.8803 7.51172 58.4172 7.07625 56.5747C6.74966 55.0032 6.64079 53.3775 6.80409 51.6434C6.96739 49.9093 7.29399 48.2294 7.78388 46.5495C8.27378 44.8696 8.87254 43.2439 9.58017 41.6724C10.2878 40.1008 10.9954 38.6377 11.7031 37.2287C15.0235 30.5091 19.0515 24.3856 23.896 18.804C24.9303 17.6119 26.0189 16.4197 27.162 15.1733C28.3051 13.9269 29.5026 12.7347 30.7546 11.6509C32.061 10.5671 33.4218 9.59169 34.837 8.72465C36.2523 7.8576 37.7764 7.26151 39.355 6.82799C40.7158 6.39447 42.2943 6.1777 43.9818 6.1777C45.6692 6.23189 47.0844 6.7738 48.282 7.80341C49.4795 8.83303 50.1871 10.1336 50.3504 11.5967C50.5681 13.0599 50.5137 14.523 50.2416 15.9861C49.6428 19.4543 48.5541 22.8683 46.9756 26.1197C45.397 29.4253 43.764 32.5684 42.0222 35.603C41.0968 37.1204 40.1715 38.6377 39.2461 40.1008C38.3207 41.564 37.2865 42.9729 36.089 44.2735C35.5447 44.5986 35.0548 44.707 34.5649 44.5986C34.075 44.4902 33.6939 44.2735 33.3673 43.9483C33.0952 43.6232 32.9319 43.2439 32.9319 42.7562C32.9863 42.3768 33.2585 41.9433 33.8028 41.564Z" fill="white"/>
<path d="M56.0659 45.8992C60.2028 43.9483 64.2308 41.7807 68.15 39.5047C72.0692 37.2287 75.3896 34.6818 78.2745 31.9181L81.8671 25.5236C83.0102 23.627 84.2077 21.6761 85.5141 19.6711C86.8205 17.666 88.399 16.0403 90.2498 14.794C90.6852 14.523 91.3928 14.2521 92.2093 13.9811C93.0803 13.7101 93.8968 13.5476 94.6588 13.5476C95.4209 13.5476 96.0196 13.7643 96.4551 14.1979C96.8906 14.6314 96.8906 15.4442 96.5095 16.6364C96.1829 17.5577 95.693 18.4247 95.0943 19.2376C94.4411 20.0504 93.7879 20.8633 93.0258 21.6761C92.2638 22.489 91.5017 23.1934 90.6852 23.8979C89.8687 24.6024 89.2155 25.2527 88.6168 25.903C87.2559 27.2035 85.7863 28.5583 84.371 29.8589C82.9013 31.1594 81.4316 32.4058 79.9075 33.598C79.5265 34.3025 79.1454 35.0069 78.7644 35.7114C78.3834 36.4159 78.0568 37.1204 77.7302 37.8248C77.1314 38.9628 76.5327 40.0466 75.9339 41.1846C75.3351 42.3226 74.6819 43.4064 73.9743 44.5444C76.0428 43.3522 78.1112 42.2684 80.2885 41.2388C82.4114 40.2092 84.5887 39.2338 86.6572 38.3125C87.3648 37.9332 88.2357 37.6081 89.1611 37.3371C90.1409 37.0662 91.0662 37.0662 91.9916 37.3371C92.9714 37.6623 93.6246 38.3125 93.8968 39.2338C94.1689 40.155 94.0056 41.0762 93.5157 41.9975C93.1347 42.8103 92.5904 43.569 91.9916 44.3819C91.3384 45.1947 90.7397 45.9534 90.0865 46.8204C89.4333 47.6333 88.8889 48.5003 88.399 49.3674C87.9091 50.2344 87.6914 51.1015 87.6914 51.9685C89.4333 51.7517 91.2295 51.264 93.0803 50.4512C94.9854 49.6383 96.6728 48.8255 98.197 48.0126C98.7413 47.7417 99.3401 47.4165 100.048 46.983C100.755 46.5495 101.354 46.2243 101.898 46.0618C102.225 45.845 102.552 45.845 102.824 45.9534C103.096 46.0618 103.368 46.2785 103.531 46.4953C103.695 46.712 103.749 46.983 103.749 47.3081C103.695 47.6333 103.477 47.9042 103.096 48.121C101.626 48.988 100.157 49.7467 98.6324 50.4512C97.1083 51.1556 95.6386 51.9143 94.1689 52.7814C93.5702 53.1065 92.8625 53.4858 92.1005 53.9735C91.284 54.4071 90.5219 54.7864 89.651 55.0573C88.8345 55.3283 88.018 55.4367 87.1471 55.3283C86.3306 55.2741 85.623 54.8406 85.0242 54.1361C84.5343 53.54 84.371 52.9439 84.371 52.2394C84.4254 51.5892 84.5887 50.9389 84.8609 50.3428C85.1331 49.6925 85.5141 49.0964 85.9496 48.5003C86.385 47.9042 86.766 47.3623 87.0926 46.9288C87.8003 46.0076 88.5079 45.0321 89.2155 43.9483C89.9232 42.9187 90.3042 41.8349 90.4675 40.6969C89.9232 40.6427 89.3788 40.6427 88.7256 40.8053C88.0724 40.9137 87.4737 41.1304 86.8205 41.3472C86.1673 41.564 85.5141 41.8349 84.9153 42.1059C84.2621 42.3768 83.7178 42.5936 83.2823 42.702C81.8127 43.3522 80.4518 44.0567 79.091 44.8154C77.7302 45.574 76.4238 46.3869 75.063 47.2539C72.9401 48.7713 71.4704 49.9093 70.5995 50.6679C69.7285 51.4266 69.1298 51.9685 68.6943 52.2936C68.3677 52.6188 67.9867 52.8355 67.5512 52.9981C67.1158 53.1065 66.6259 52.9981 66.136 52.6188C65.5916 52.1853 65.3739 51.6975 65.4283 51.264C65.4828 50.8305 65.7005 50.4512 66.0271 50.0176C67.9323 48.0668 69.7285 45.9534 71.3071 43.7316C72.9401 41.5098 74.4098 39.1796 75.7162 36.8494C73.9199 38.2042 72.1236 39.5047 70.3273 40.6969C68.531 41.8891 66.6803 43.0271 64.8296 44.1651C63.6865 44.8696 62.5978 45.5198 61.5092 46.1159C60.4205 46.712 59.3319 47.3081 58.1888 47.9042C57.8622 48.0126 57.5356 48.1752 57.1545 48.3377C56.7735 48.5003 56.4469 48.4461 56.1203 48.1752C55.7937 47.9042 55.6304 47.5249 55.6304 47.0914C55.4671 46.4411 55.6849 46.0618 56.0659 45.8992ZM87.4737 23.5186C88.3446 22.6515 89.2155 21.7303 90.0865 20.7549C90.9574 19.7795 91.7194 18.6957 92.3182 17.5035C90.7941 18.2079 89.4333 19.2376 88.2357 20.5381C87.0382 21.8387 86.004 23.1393 85.0786 24.4398L83.0102 27.908C83.7178 27.2035 84.4799 26.4449 85.2419 25.7404C86.004 24.9275 86.766 24.2231 87.4737 23.5186Z" fill="white"/>
<path d="M101.572 45.8992C102.933 45.1947 104.348 44.436 105.709 43.7316C107.07 43.0271 108.539 42.2142 110.118 41.2388C110.009 39.9924 110.39 38.8002 111.261 37.6622C112.132 36.5242 113.275 36.0365 114.69 36.0907C115.615 36.1991 116.214 36.6868 116.486 37.4455C116.759 38.2583 116.595 39.017 116.105 39.7215C115.561 40.5343 114.908 41.1846 114.037 41.6723C114.472 41.9433 115.071 42.0517 115.724 42.0517C117.085 42.16 118.555 41.9433 120.079 41.293C121.603 40.6427 122.964 39.9924 124.161 39.288C125.359 38.9086 126.121 39.017 126.448 39.6673C126.774 40.3176 126.665 41.1304 126.067 42.0517C125.74 42.5936 125.359 43.2438 124.924 44.0567C124.488 44.8696 124.107 45.7366 123.835 46.5495C123.563 47.4165 123.399 48.2294 123.345 48.988C123.291 49.8009 123.563 50.397 124.107 50.8847C124.434 51.264 125.305 51.264 126.72 50.8847C128.135 50.5053 130.04 49.8551 132.435 48.9338C133.252 48.6087 134.014 48.2294 134.885 47.7958C135.701 47.3623 136.572 46.983 137.389 46.5495C137.606 46.4953 137.879 46.3327 138.26 46.1159C138.641 45.8992 139.022 45.7366 139.403 45.6282C139.784 45.5198 140.11 45.5198 140.382 45.6282C140.655 45.7366 140.818 46.0617 140.818 46.6578C140.818 46.983 140.655 47.3081 140.382 47.5249C140.11 47.7958 139.729 48.0126 139.403 48.2294C139.022 48.4461 138.641 48.6087 138.26 48.7171C137.879 48.8254 137.552 48.9338 137.389 48.988L133.252 50.8847C132.544 51.264 131.619 51.7517 130.53 52.3478C129.441 52.9439 128.353 53.4316 127.21 53.811C126.067 54.1903 124.978 54.4071 123.944 54.4071C122.909 54.4071 122.039 53.9735 121.494 53.1065C121.168 52.673 120.95 52.1311 120.895 51.5892C120.841 51.0472 120.841 50.4512 120.95 49.9093C121.059 49.3673 121.168 48.7713 121.331 48.2294C121.494 47.6874 121.658 47.1455 121.766 46.6036L122.583 43.3522C122.256 43.4064 121.549 43.569 120.569 43.8399C119.535 44.1109 118.446 44.2735 117.248 44.3818C116.051 44.4902 114.908 44.4902 113.819 44.3277C112.731 44.2193 111.914 43.7857 111.37 43.0271C110.227 43.6232 109.301 44.1109 108.594 44.4902C107.886 44.8696 107.124 45.3031 106.362 45.7908C105.6 46.2785 105.001 46.6036 104.511 46.8746C104.13 46.983 103.64 47.2539 103.15 47.6333C102.606 48.0126 102.171 48.0668 101.79 47.7958C101.408 47.5249 101.191 47.1455 101.191 46.712C100.973 46.4411 101.136 46.0617 101.572 45.8992Z" fill="white"/>
<path d="M149.309 41.4556C150.616 40.9137 151.977 40.4802 153.446 40.1008C154.862 39.7215 156.222 39.288 157.583 38.9086C158.454 38.4751 159.38 38.0958 160.468 37.8248C161.502 37.5539 162.482 37.7165 163.353 38.2042C163.897 38.5835 164.061 39.1254 163.952 39.7757C164.387 39.7215 164.877 39.8299 165.313 40.155C166.184 41.0221 166.456 42.0517 166.184 43.1897C165.911 44.3819 165.422 45.5199 164.714 46.6578C164.986 46.983 165.367 47.3081 165.911 47.6333C166.946 48.2836 168.143 48.6087 169.395 48.5003C170.647 48.4461 171.845 48.2294 172.988 47.9042C173.314 47.85 173.804 47.6333 174.457 47.3081C175.111 46.983 175.818 46.6578 176.471 46.3869C177.179 46.1159 177.832 45.8992 178.377 45.7908C178.975 45.6824 179.356 45.845 179.574 46.2243C179.846 46.7662 179.792 47.1998 179.465 47.5791C179.139 47.9584 178.703 48.2294 178.104 48.4461C177.56 48.6629 176.961 48.8797 176.363 49.0964C175.764 49.3132 175.383 49.4216 175.165 49.4757C174.185 49.8009 173.151 50.0718 172.062 50.2886C170.974 50.5054 169.885 50.5596 168.851 50.5596C167.817 50.5596 166.782 50.397 165.803 50.126C164.823 49.8551 163.952 49.3132 163.244 48.6087L161.067 50.8847C160.25 51.5892 159.38 52.3478 158.4 53.0523C157.42 53.7568 156.386 54.4071 155.297 54.8948C154.208 55.3825 153.065 55.7076 151.868 55.816C150.67 55.9244 149.582 55.7618 148.493 55.3283C147.187 54.7322 146.37 53.9735 146.152 52.9981C145.935 52.0227 145.989 51.0473 146.425 49.9635C146.806 48.9338 147.404 47.9042 148.112 46.9288C148.82 45.9534 149.527 45.1405 150.18 44.436L152.086 42.5394C150.561 43.0813 149.092 43.6774 147.622 44.3277C146.152 44.978 144.737 45.6824 143.267 46.3869C142.995 46.4953 142.669 46.712 142.288 46.9288C141.907 47.1456 141.471 47.3623 141.09 47.5791C140.709 47.7958 140.328 47.9042 139.947 48.0126C139.566 48.121 139.294 48.0668 139.022 47.85C138.586 47.5791 138.368 47.1998 138.423 46.7662C138.477 46.3327 138.695 45.9534 139.131 45.7908L149.309 41.4556ZM152.684 44.9238C152.412 45.1947 151.922 45.6824 151.269 46.3869C150.561 47.0914 149.963 47.85 149.418 48.6629C148.874 49.4757 148.602 50.1802 148.493 50.8847C148.384 51.5892 148.82 51.9685 149.745 52.1311C151.487 52.402 153.12 52.3478 154.644 51.9143C156.168 51.535 157.583 50.7763 158.835 49.6383C159.38 49.0964 159.869 48.6087 160.305 48.1752C160.74 47.7417 161.176 47.1998 161.502 46.6037C161.176 45.7366 161.013 44.8154 160.958 43.84C160.904 42.8645 161.176 41.9975 161.72 41.293C159.869 41.4014 158.182 41.8349 156.712 42.4852C155.188 43.0813 153.882 43.8941 152.684 44.9238Z" fill="white"/>
<path d="M177.615 46.0076C178.322 45.6282 179.574 44.9238 181.37 44.0025C183.167 43.0271 184.963 42.1601 186.868 41.293C188.773 40.426 190.461 39.8299 192.094 39.5047C193.672 39.1796 194.652 39.4506 195.088 40.3176C195.36 40.9679 195.251 41.6182 194.815 42.2143C194.38 42.8645 194.053 43.4064 193.89 43.9483L192.692 46.712C193.563 46.1701 194.434 45.7366 195.251 45.3573C196.122 44.978 196.993 44.5444 197.809 44.1651C199.932 43.0271 202.109 41.8891 204.341 40.5885C206.573 39.3422 208.859 38.3667 211.2 37.7165C212.071 37.4997 212.833 37.4997 213.486 37.6623C214.139 37.8248 214.683 38.15 215.01 38.5293C215.391 38.9628 215.554 39.5047 215.554 40.2092C215.554 40.9137 215.282 41.6182 214.738 42.431C214.139 43.3523 213.486 44.1651 212.833 44.8696C212.125 45.5741 211.417 46.3869 210.71 47.254C210.601 47.4707 210.329 47.7417 210.002 48.0668C209.676 48.3919 209.349 48.7713 208.968 49.2048C208.587 49.6383 208.26 50.0718 207.988 50.5054C207.716 50.9389 207.498 51.3182 207.444 51.6434C207.879 51.7517 208.478 51.7517 209.186 51.6434C209.893 51.535 210.546 51.3182 211.254 51.1015C211.962 50.8847 212.615 50.6138 213.214 50.3428C213.867 50.0718 214.302 49.9093 214.629 49.7467L218.711 47.9584C218.984 47.85 219.31 47.6333 219.746 47.3623C220.181 47.0914 220.617 46.8746 221.106 46.6037C221.542 46.3869 222.032 46.1701 222.467 45.9534C222.903 45.7366 223.229 45.6824 223.502 45.6824C224.1 45.6824 224.372 45.9534 224.372 46.5495C224.372 47.1456 224.1 47.5791 223.556 47.9042C222.957 48.2294 222.358 48.5545 221.651 48.8255C220.998 49.0964 220.29 49.4216 219.582 49.7467C218.657 50.2886 217.786 50.7221 216.915 51.1015C216.044 51.4808 215.173 51.9143 214.248 52.402C213.704 52.673 212.887 53.0523 211.744 53.54C210.601 54.0277 209.458 54.4071 208.26 54.6238C207.117 54.8406 206.083 54.8406 205.212 54.5155C204.341 54.2445 203.906 53.4316 203.906 52.0769C203.906 51.4266 204.069 50.8305 204.396 50.2886C204.722 49.7467 205.103 49.259 205.539 48.7713C205.974 48.2836 206.41 47.7959 206.899 47.3623C207.389 46.9288 207.825 46.4953 208.26 46.0618C208.641 45.7366 209.295 45.0321 210.22 44.0025C211.145 42.9729 211.744 41.9433 212.016 41.0221C210.22 41.2388 208.424 41.6723 206.627 42.3768C204.831 43.0813 203.144 43.84 201.619 44.6528C199.714 45.5741 197.7 46.6037 195.686 47.7417C193.618 48.8797 191.876 50.2344 190.352 51.8601C190.025 52.1311 189.699 52.2936 189.318 52.2936C188.937 52.3478 188.61 52.2395 188.283 52.0769C187.957 51.9143 187.685 51.6434 187.521 51.3182C187.358 50.9931 187.358 50.5596 187.467 50.0177C187.685 49.4216 188.175 48.8797 188.937 48.4461C189.263 47.9042 189.59 47.3081 189.916 46.6037C190.243 45.8992 190.461 45.5199 190.624 45.3573C190.733 44.9238 190.896 44.4361 191.005 43.9483C191.114 43.4606 191.223 42.9729 191.277 42.431C190.57 42.6478 189.808 42.8645 189.1 43.1355C188.392 43.4064 187.794 43.6232 187.412 43.7316C186.487 44.1109 185.562 44.4902 184.636 44.8696C183.711 45.2489 182.786 45.6282 181.86 46.116C181.316 46.3869 180.826 46.6579 180.445 46.9288C180.01 47.1998 179.52 47.4165 179.03 47.6333C178.649 47.85 178.268 47.9042 177.887 47.7959C177.506 47.6875 177.234 47.5249 177.07 47.3623C176.852 47.1456 176.798 46.9288 176.798 46.6037C176.907 46.4411 177.179 46.1701 177.615 46.0076Z" fill="white"/>
<path d="M233.136 41.4556C234.443 40.9137 235.803 40.4802 237.273 40.1008C238.688 39.7215 240.049 39.288 241.41 38.9086C242.281 38.4751 243.206 38.0958 244.295 37.8248C245.329 37.5539 246.309 37.7165 247.18 38.2042C247.724 38.5835 247.887 39.1254 247.779 39.7757C248.214 39.7215 248.704 39.8299 249.139 40.155C250.01 41.0221 250.282 42.0517 250.01 43.1897C249.738 44.3819 249.248 45.5199 248.541 46.6578C248.813 46.983 249.194 47.3081 249.738 47.6333C250.772 48.2836 251.97 48.6087 253.222 48.5003C254.474 48.4461 255.671 48.2294 256.814 47.9042C257.141 47.85 257.631 47.6333 258.284 47.3081C258.937 46.983 259.645 46.6578 260.298 46.3869C261.006 46.1159 261.659 45.8992 262.203 45.7908C262.802 45.6824 263.183 45.845 263.401 46.2243C263.673 46.7662 263.619 47.1998 263.292 47.5791C262.965 47.9584 262.53 48.2294 261.931 48.4461C261.387 48.6629 260.788 48.8797 260.189 49.0964C259.591 49.3132 259.209 49.4216 258.992 49.4757C258.012 49.8009 256.978 50.0718 255.889 50.2886C254.8 50.5054 253.712 50.5596 252.678 50.5596C251.643 50.5596 250.609 50.397 249.629 50.126C248.65 49.8551 247.779 49.3132 247.071 48.6087L244.894 50.8847C244.077 51.5892 243.206 52.3478 242.226 53.0523C241.247 53.7568 240.212 54.4071 239.124 54.8948C238.035 55.3825 236.892 55.7076 235.694 55.816C234.497 55.9244 233.408 55.7618 232.32 55.3283C231.013 54.7322 230.197 53.9735 229.979 52.9981C229.761 52.0227 229.816 51.0473 230.251 49.9635C230.632 48.9338 231.231 47.9042 231.939 46.9288C232.646 45.9534 233.354 45.1405 234.007 44.436L235.912 42.5394C234.388 43.0813 232.918 43.6774 231.449 44.3277C229.979 44.978 228.564 45.6824 227.094 46.3869C226.822 46.4953 226.495 46.712 226.114 46.9288C225.733 47.1456 225.298 47.3623 224.917 47.5791C224.536 47.7958 224.155 47.9042 223.774 48.0126C223.393 48.121 223.12 48.0668 222.848 47.85C222.413 47.5791 222.195 47.1998 222.25 46.7662C222.304 46.3327 222.522 45.9534 222.957 45.7908L233.136 41.4556ZM236.457 44.9238C236.184 45.1947 235.694 45.6824 235.041 46.3869C234.334 47.0914 233.735 47.85 233.191 48.6629C232.646 49.4757 232.374 50.1802 232.265 50.8847C232.156 51.5892 232.592 51.9685 233.517 52.1311C235.259 52.402 236.892 52.3478 238.416 51.9143C239.94 51.535 241.356 50.7763 242.607 49.6383C243.152 49.0964 243.642 48.6087 244.077 48.1752C244.513 47.7417 244.948 47.1998 245.275 46.6037C244.948 45.7366 244.785 44.8154 244.73 43.84C244.676 42.8645 244.948 41.9975 245.492 41.293C243.642 41.4014 241.954 41.8349 240.485 42.4852C239.015 43.0813 237.654 43.8941 236.457 44.9238Z" fill="white"/>
<path d="M261.441 46.0076C261.877 45.7366 262.748 45.2489 263.945 44.5986C265.143 43.8941 266.504 43.1897 268.028 42.4852C269.497 41.7807 271.022 41.0762 272.546 40.4801C274.07 39.8299 275.376 39.5047 276.519 39.4505C276.9 39.3422 277.336 39.3422 277.771 39.5047C278.207 39.6673 278.533 39.8841 278.697 40.155C279.078 40.8053 279.132 41.3472 278.805 41.6723C278.479 42.0517 278.043 42.3226 277.499 42.5936C276.955 42.8645 276.41 43.0813 275.757 43.2439C275.104 43.4064 274.723 43.6232 274.505 43.8941C274.179 44.2735 274.233 44.6528 274.777 44.9779C275.267 45.3031 275.866 45.574 276.628 45.7908C277.336 46.0076 278.098 46.1701 278.805 46.3327C279.513 46.4953 280.003 46.6578 280.166 46.7662C281.473 47.4707 282.289 48.2836 282.507 49.0964C282.725 49.9093 282.616 50.7763 282.071 51.5892L284.739 50.2344L292.686 46.1159C293.121 45.845 293.557 45.845 293.938 46.0617C294.319 46.2785 294.482 46.6578 294.482 47.1997C294.482 47.7416 294.21 48.121 293.666 48.3377C293.121 48.5545 292.577 48.7713 292.141 48.988C290.563 49.6925 288.93 50.5054 287.351 51.3182C285.718 52.1311 284.14 52.9981 282.561 53.811C280.656 54.7322 278.805 55.5451 277.064 56.2495C275.322 56.954 273.525 57.3333 271.675 57.3333C270.368 57.3333 269.171 56.8998 268.137 55.9786C267.102 55.0573 266.612 54.0277 266.612 52.8355C266.558 52.2394 266.667 51.7517 266.993 51.4266C267.32 51.0473 267.701 50.8305 268.191 50.7221C268.626 50.6137 269.062 50.7221 269.443 50.9931C269.824 51.264 270.042 51.6975 270.096 52.2936C270.205 53.5942 270.804 54.4071 271.838 54.6238C272.872 54.8406 274.07 54.7864 275.431 54.4612C276.356 54.1361 277.172 53.7026 277.934 53.2149C278.697 52.7272 279.241 52.2394 279.567 51.8059C280.438 50.8847 280.656 50.1802 280.275 49.6383C279.894 49.0964 279.186 48.6629 278.261 48.3377C277.281 48.0126 276.301 47.7416 275.213 47.5249C274.179 47.3081 273.417 47.0372 273.036 46.712C272.437 46.1701 272.11 45.6824 272.001 45.1405C271.892 44.5986 271.892 44.1109 272.056 43.569C271.076 43.9483 270.096 44.3818 269.116 44.8154C268.137 45.2489 267.266 45.6282 266.504 45.9534C265.905 46.2785 265.197 46.7662 264.381 47.3623C263.564 48.0126 262.802 48.2836 262.149 48.2836C261.822 48.3377 261.55 48.2836 261.332 48.121C261.115 47.9584 260.951 47.7416 260.951 47.5249C260.897 47.3081 260.951 47.0372 261.06 46.7662C261.006 46.3327 261.169 46.1159 261.441 46.0076Z" fill="white"/>
<path d="M65.6461 67.196H70.4362V68.063H66.6259V71.2603H69.7286V72.1273H66.6259V76.029H70.4362V76.896H65.6461V67.196Z" fill="white"/>
<path d="M78.9278 69.4178C78.7645 68.7133 78.4379 68.0088 77.5669 68.0088C76.6416 68.0088 76.2606 68.7675 76.2606 69.5803C76.2606 70.3932 76.4239 70.61 77.948 71.5312C79.1455 72.2357 79.962 72.8318 79.962 74.3491C79.962 75.8664 79.1455 77.1128 77.5125 77.1128C75.7707 77.1128 75.1719 75.9748 75.0086 74.4033L75.9884 74.2949C76.0973 75.3787 76.3694 76.1916 77.5669 76.1916C78.4379 76.1916 79.0366 75.5955 79.0366 74.4575C79.0366 73.1569 78.2201 72.7234 77.1859 72.1273C76.0428 71.477 75.2808 70.9893 75.2808 69.5803C75.2808 68.2798 76.1517 67.0876 77.5669 67.0876C78.9278 67.0876 79.6354 68.063 79.8531 69.3094L78.9278 69.4178Z" fill="white"/>
<path d="M86.2762 76.9502H85.2964V67.196H87.4193C89.1611 67.196 90.1409 68.1172 90.1409 69.7971C90.1409 71.5854 89.1067 72.615 87.7459 72.615H86.2762V76.9502ZM86.2762 71.748H87.637C88.5624 71.748 89.0523 71.0435 89.0523 69.7971C89.0523 68.6049 88.3991 68.063 87.3648 68.063H86.2217V71.748H86.2762Z" fill="white"/>
<path d="M95.7475 73.9156L94.9855 77.1128L94.0057 76.8418L96.5096 67.1418H97.7071L100.211 76.8418L99.2312 77.1128L98.4692 73.9156H95.7475ZM97.1084 68.4965L95.9653 73.0485H98.1426L97.1084 68.4965Z" fill="white"/>
<path d="M109.628 75.4871C109.138 76.2999 108.376 76.896 107.451 77.0586L107.287 77.5463C107.886 77.6005 108.485 77.8715 108.485 78.5759C108.485 79.2804 107.777 79.7139 107.124 79.7139C106.634 79.7139 106.09 79.4972 105.6 79.2804L105.872 78.5217C106.199 78.6843 106.58 78.7927 106.961 78.7927C107.178 78.7927 107.396 78.7385 107.396 78.5217C107.396 78.034 106.416 78.0882 106.144 78.034L106.525 77.0044C104.402 76.6251 104.076 73.8614 104.076 72.0189C104.076 70.0681 104.457 66.9792 107.015 66.9792C108.158 66.9792 108.92 67.6295 109.41 68.5507L108.594 69.0384C108.267 68.4424 107.777 67.9005 107.015 67.9005C105.219 67.9005 105.11 70.7183 105.11 72.0189C105.11 73.2653 105.219 76.0832 107.015 76.0832C107.777 76.0832 108.376 75.4329 108.757 74.8368L109.628 75.4871Z" fill="white"/>
<path d="M119.371 72.0731C119.371 73.3195 119.426 77.1128 116.65 77.1128C113.874 77.1128 113.928 73.3737 113.928 72.0731C113.928 70.4474 114.037 67.0876 116.65 67.0876C119.426 67.0876 119.371 70.7725 119.371 72.0731ZM114.962 72.0731C114.962 74.7284 115.289 76.1916 116.65 76.1916C118.337 76.1916 118.337 73.8072 118.337 72.0731C118.337 70.2306 118.392 68.0088 116.65 68.0088C114.962 68.0088 114.962 70.61 114.962 72.0731Z" fill="white"/>
<path d="M135.756 68.063H133.633V67.196H138.804V68.063H136.735V76.9502H135.756V68.063Z" fill="white"/>
<path d="M143.921 67.196H148.711V68.063H144.9V71.2603H148.058V72.1273H144.9V76.029H148.711V76.896H143.921V67.196Z" fill="white"/>
<path d="M153.773 67.196H156.44C157.42 67.196 158.618 68.0088 158.618 69.7971C158.618 70.9893 158.128 72.1273 156.93 72.5608L158.944 76.7335L158.073 77.167L155.896 72.615H154.807V76.9502H153.827V67.196H153.773ZM154.807 71.748H156.222C157.093 71.748 157.583 71.0977 157.583 69.7971C157.583 68.5507 156.985 68.063 155.95 68.063H154.753V71.748H154.807Z" fill="white"/>
<path d="M164.279 73.9156L163.516 77.1128L162.537 76.8418L165.041 67.1418H166.238L168.742 76.8418L167.762 77.1128L167 73.9156H164.279ZM165.639 68.4965L164.496 73.0485H166.674L165.639 68.4965Z" fill="white"/>
<path d="M174.349 76.9502H173.369V67.196H175.492C177.234 67.196 178.213 68.1172 178.213 69.7971C178.213 71.5854 177.179 72.615 175.818 72.615H174.349V76.9502ZM174.349 71.748H175.709C176.635 71.748 177.125 71.0435 177.125 69.7971C177.125 68.6049 176.472 68.063 175.437 68.063H174.294V71.748H174.349Z" fill="white"/>
<path d="M183.33 66.7624L183.003 66.2205L185.235 64.7032L187.467 66.2205L187.14 66.7624L185.235 65.8412L183.33 66.7624ZM183.112 67.196H187.902V68.063H184.092V71.2602H187.195V72.1273H184.092V76.029H187.902V76.896H183.112V67.196Z" fill="white"/>
<path d="M193.563 67.196V74.2949C193.563 75.2703 193.781 76.1916 194.979 76.1916C196.176 76.1916 196.394 75.2703 196.394 74.2949V67.196H197.374V74.5659C197.374 76.0832 196.394 77.0586 194.979 77.0586C193.509 77.0586 192.584 76.029 192.584 74.6201V67.196H193.563Z" fill="white"/>
<path d="M204.287 68.063H202.164V67.196H207.335V68.063H205.267V76.9502H204.287V68.063Z" fill="white"/>
<path d="M214.03 68.063H212.724V67.196H216.371V68.063H215.01V76.0832H216.371V76.9502H212.724V76.0832H214.03V68.063Z" fill="white"/>
<path d="M227.094 75.4871C226.495 76.4083 225.679 77.0586 224.536 77.0586C221.977 77.0586 221.596 73.9697 221.596 72.0731C221.596 70.1222 221.977 67.0334 224.536 67.0334C225.679 67.0334 226.441 67.6837 226.931 68.6049L226.114 69.0926C225.788 68.4965 225.298 67.9546 224.536 67.9546C222.74 67.9546 222.631 70.7725 222.631 72.0731C222.631 73.3195 222.74 76.1374 224.536 76.1374C225.298 76.1374 225.897 75.4871 226.278 74.891L227.094 75.4871Z" fill="white"/>
<path d="M236.838 72.0731C236.838 73.3195 236.892 77.1128 234.116 77.1128C231.34 77.1128 231.394 73.3737 231.394 72.0731C231.394 70.4474 231.503 67.0876 234.116 67.0876C236.892 67.0876 236.838 70.7725 236.838 72.0731ZM232.429 72.0731C232.429 74.7284 232.755 76.1916 234.116 76.1916C235.803 76.1916 235.803 73.8072 235.803 72.0731C235.803 70.2306 235.858 68.0088 234.116 68.0088C232.374 68.0088 232.429 70.61 232.429 72.0731Z" fill="white"/>
</svg>
